<?xml version="1.0" standalone="no"?>
<!DOCTYPE svg PUBLIC "-//W3C//DTD SVG 20010904//EN"
 "http://www.w3.org/TR/2001/REC-SVG-20010904/DTD/svg10.dtd">
<svg version="1.0" xmlns="http://www.w3.org/2000/svg"
 width="48.000000pt" height="48.000000pt" viewBox="0 0 48.000000 48.000000"
 preserveAspectRatio="xMidYMid meet">

<g transform="translate(0.000000,48.000000) scale(0.100000,-0.100000)"
fill="#bebebe" stroke="none">
<path d="M12 464 c-11 -12 -10 -17 2 -30 15 -14 17 -14 32 0 14 14 14 18 0 31
-18 18 -18 18 -34 -1z"/>
<path d="M207 448 c-13 -18 -51 -72 -82 -121 l-58 -87 79 -118 c43 -64 86
-117 94 -117 8 0 51 53 94 118 l80 117 -80 117 c-43 64 -84 119 -91 121 -6 1
-22 -12 -36 -30z m-11 -108 l-23 -85 -38 -3 -38 -3 19 29 c68 104 99 150 100
149 1 -1 -8 -40 -20 -87z m153 -88 c-17 -2 -35 0 -39 5 -4 4 -15 40 -25 78
-10 39 -20 77 -23 85 -2 8 23 -25 57 -75 l61 -90 -31 -3z m-83 78 l20 -80 -46
0 -46 0 20 80 c11 44 23 80 26 80 3 0 15 -36 26 -80z m-70 -190 c13 -47 24
-87 24 -90 0 -4 -54 75 -105 153 l-18 28 38 -3 38 -3 23 -85z m70 10 c-11 -44
-23 -80 -26 -80 -3 0 -15 36 -26 80 l-20 80 46 0 46 0 -20 -80z m98 53 c-60
-95 -105 -155 -100 -138 14 55 38 141 41 153 3 6 20 12 41 12 l36 0 -18 -27z"/>
<path d="M380 366 c0 -9 7 -16 16 -16 17 0 14 22 -4 28 -7 2 -12 -3 -12 -12z"/>
<path d="M30 345 c0 -8 7 -15 15 -15 8 0 15 7 15 15 0 8 -7 15 -15 15 -8 0
-15 -7 -15 -15z"/>
<path d="M430 115 c0 -8 -7 -15 -15 -15 -8 0 -15 -4 -15 -10 0 -5 7 -10 15
-10 8 0 15 -7 15 -15 0 -8 5 -15 10 -15 6 0 10 7 10 15 0 8 7 15 15 15 8 0 15
5 15 10 0 6 -7 10 -15 10 -8 0 -15 7 -15 15 0 8 -4 15 -10 15 -5 0 -10 -7 -10
-15z"/>
<path d="M330 34 c0 -17 22 -14 28 4 2 7 -3 12 -12 12 -9 0 -16 -7 -16 -16z"/>
</g>
</svg>
